<svg width="122" height="23" viewBox="0 0 122 23" fill="none" xmlns="http://www.w3.org/2000/svg">
<path fill-rule="evenodd" clip-rule="evenodd" d="M47.2984 15.8057C47.1235 16.0965 46.8853 16.3313 46.5837 16.5102C46.137 16.7752 45.561 16.9077 44.8563 16.9077C44.2309 16.9077 43.6949 16.8046 43.2482 16.5986C42.8015 16.3827 42.4591 16.0932 42.2209 15.7301C41.9826 15.367 41.8635 14.9597 41.8635 14.5083C41.8635 14.0373 41.9776 13.6251 42.206 13.2718C42.4442 12.9186 42.8164 12.6438 43.3227 12.4475C43.8289 12.2414 44.489 12.1384 45.303 12.1384H47.1495C47.1495 11.6477 46.9955 11.265 46.6879 10.9902C46.3901 10.7155 45.9285 10.5781 45.303 10.5781C44.8761 10.5781 44.4543 10.6468 44.0374 10.7842C43.6304 10.9117 43.283 11.0884 42.9951 11.3141L42.1613 9.7096C42.5981 9.4054 43.1241 9.16988 43.7396 9.00304C44.355 8.83619 44.9804 8.7528 45.6159 8.7528C46.8368 8.7528 47.7846 9.0374 48.4597 9.60656C49.1344 10.1757 49.4722 11.0638 49.4722 12.2709V16.7899H47.2984V15.8057ZM47.1495 13.4779H45.5563C45.0101 13.4779 44.6329 13.5662 44.4245 13.7429C44.2259 13.9195 44.1267 14.1403 44.1267 14.4053C44.1267 14.6997 44.2408 14.9352 44.4692 15.1118C44.7074 15.2787 45.03 15.3621 45.437 15.3621C45.8243 15.3621 46.1714 15.2738 46.4795 15.0971C46.787 14.9107 47.0103 14.6408 47.1495 14.2875V13.4779Z" fill="black"/>
<path d="M63.5157 9.13552C63.029 8.88035 62.4683 8.7528 61.8332 8.7528C61.0687 8.7528 60.3889 8.93436 59.7934 9.29744C59.4596 9.50431 59.1775 9.75262 58.9469 10.0423C58.7594 9.74532 58.5204 9.50193 58.23 9.31216C57.6837 8.93923 57.0435 8.7528 56.3092 8.7528C55.6541 8.7528 55.0683 8.89507 54.5523 9.17968C54.2615 9.33748 54.0084 9.539 53.7929 9.78422V8.87056H51.5744V16.7899H53.8972V12.8155C53.8972 12.3445 53.9716 11.9568 54.1205 11.6526C54.2694 11.3484 54.4778 11.1227 54.7459 10.9755C55.0139 10.8185 55.3163 10.74 55.6541 10.74C56.1403 10.74 56.5126 10.8921 56.7708 11.1963C57.0388 11.5005 57.1728 11.9716 57.1728 12.6094V16.7899H59.4956V12.8155C59.4956 12.3445 59.57 11.9568 59.7189 11.6526C59.8678 11.3484 60.0763 11.1227 60.3443 10.9755C60.6123 10.8185 60.9147 10.74 61.2525 10.74C61.7388 10.74 62.1161 10.8921 62.3841 11.1963C62.6521 11.5005 62.7861 11.9716 62.7861 12.6094V16.7899H65.1089V12.2562C65.1089 11.4515 64.9646 10.794 64.6771 10.2837C64.3988 9.76355 64.0117 9.38083 63.5157 9.13552Z" fill="black"/>
<path fill-rule="evenodd" clip-rule="evenodd" d="M72.1041 15.8057C71.9292 16.0965 71.691 16.3313 71.3894 16.5102C70.9427 16.7752 70.3672 16.9077 69.6622 16.9077C69.0369 16.9077 68.5009 16.8046 68.0542 16.5986C67.6075 16.3827 67.2651 16.0932 67.0268 15.7301C66.7886 15.367 66.6695 14.9597 66.6695 14.5083C66.6695 14.0373 66.7835 13.6251 67.0119 13.2718C67.2502 12.9186 67.6224 12.6438 68.1286 12.4475C68.6349 12.2414 69.2951 12.1384 70.1089 12.1384H71.9552C71.9552 11.6477 71.8012 11.265 71.4936 10.9902C71.1959 10.7155 70.7343 10.5781 70.1089 10.5781C69.6823 10.5781 69.2602 10.6468 68.8433 10.7842C68.4362 10.9117 68.0891 11.0884 67.8011 11.3141L66.9673 9.7096C67.4042 9.4054 67.93 9.16988 68.5455 9.00304C69.1611 8.83619 69.7865 8.7528 70.4216 8.7528C71.6425 8.7528 72.5903 9.0374 73.2655 9.60656C73.9406 10.1757 74.278 11.0638 74.278 12.2709V16.7899H72.1041V15.8057ZM71.9552 13.4779H70.362C69.8163 13.4779 69.4389 13.5662 69.2305 13.7429C69.0318 13.9195 68.9327 14.1403 68.9327 14.4053C68.9327 14.6997 69.0467 14.9352 69.2751 15.1118C69.5133 15.2787 69.8358 15.3621 70.2429 15.3621C70.6301 15.3621 70.9776 15.2738 71.2852 15.0971C71.5928 14.9107 71.8161 14.6408 71.9552 14.2875V13.4779Z" fill="black"/>
<path d="M79.2836 16.5838C79.9783 16.839 80.7279 16.9666 81.5319 16.9666C82.4453 16.9666 83.2642 16.8096 83.9886 16.4955C84.7233 16.1815 85.3384 15.7252 85.8349 15.1266L84.2864 13.7134C83.9291 14.1256 83.5322 14.4347 83.0953 14.6408C82.6584 14.8371 82.1819 14.9352 81.6659 14.9352C81.1797 14.9352 80.733 14.8567 80.3258 14.6997C79.9187 14.5427 79.5665 14.317 79.2687 14.0226C78.9709 13.7282 78.7378 13.3798 78.5689 12.9774C78.4102 12.5751 78.3307 12.1286 78.3307 11.6379C78.3307 11.1472 78.4102 10.7008 78.5689 10.2984C78.7378 9.89603 78.9709 9.54768 79.2687 9.25328C79.5665 8.95888 79.9187 8.73315 80.3258 8.57616C80.733 8.41916 81.1797 8.34064 81.6659 8.34064C82.1819 8.34064 82.6584 8.44368 83.0953 8.64976C83.5322 8.84604 83.9291 9.14531 84.2864 9.54768L85.8349 8.13456C85.3384 7.53596 84.7233 7.08451 83.9886 6.78032C83.2642 6.46627 82.4499 6.30928 81.5468 6.30928C80.733 6.30928 79.9834 6.44176 79.2985 6.70672C78.6136 6.96188 78.0129 7.32988 77.4969 7.81072C76.9906 8.29155 76.5937 8.85584 76.3057 9.50352C76.0279 10.1512 75.8888 10.8627 75.8888 11.6379C75.8888 12.4132 76.0279 13.1246 76.3057 13.7723C76.5937 14.42 76.9906 14.9843 77.4969 15.4651C78.0031 15.946 78.5987 16.3189 79.2836 16.5838Z" fill="black"/>
<path fill-rule="evenodd" clip-rule="evenodd" d="M93.3122 16.3778C93.9771 16.731 94.7364 16.9077 95.5903 16.9077C96.4338 16.9077 97.1881 16.731 97.8535 16.3778C98.5184 16.0245 99.0395 15.5436 99.4168 14.9352C99.7937 14.317 99.9826 13.6153 99.9826 12.8302C99.9826 12.0256 99.7937 11.319 99.4168 10.7106C99.0395 10.1021 98.5184 9.6262 97.8535 9.28272C97.1881 8.92944 96.4338 8.7528 95.5903 8.7528C94.7364 8.7528 93.9771 8.92944 93.3122 9.28272C92.657 9.6262 92.1359 10.107 91.7488 10.7253C91.3715 11.3337 91.183 12.0354 91.183 12.8302C91.183 13.6153 91.3715 14.317 91.7488 14.9352C92.1359 15.5436 92.657 16.0245 93.3122 16.3778ZM96.6325 14.7586C96.3245 14.9352 95.9774 15.0235 95.5903 15.0235C95.2031 15.0235 94.8556 14.9352 94.548 14.7586C94.24 14.5819 93.992 14.3317 93.8035 14.0078C93.6249 13.6742 93.5355 13.2816 93.5355 12.8302C93.5355 12.369 93.6249 11.9765 93.8035 11.6526C93.992 11.3288 94.24 11.0786 94.548 10.9019C94.8556 10.7253 95.2031 10.637 95.5903 10.637C95.9774 10.637 96.3245 10.7253 96.6325 10.9019C96.9401 11.0786 97.1834 11.3288 97.3621 11.6526C97.5408 11.9765 97.6301 12.369 97.6301 12.8302C97.6301 13.2816 97.5408 13.6742 97.3621 14.0078C97.1834 14.3317 96.9401 14.5819 96.6325 14.7586Z" fill="black"/>
<path d="M103.128 16.525C103.654 16.7801 104.25 16.9077 104.915 16.9077C105.53 16.9077 106.096 16.7703 106.613 16.4955C106.919 16.3294 107.183 16.1182 107.402 15.8619V16.7899H109.605V8.87056H107.283V12.7861C107.283 13.2669 107.203 13.6693 107.044 13.9931C106.885 14.3072 106.667 14.5427 106.389 14.6997C106.111 14.8469 105.794 14.9205 105.436 14.9205C104.92 14.9205 104.518 14.7684 104.23 14.4642C103.952 14.1501 103.813 13.6644 103.813 13.0069V8.87056H101.491V13.3454C101.491 14.16 101.634 14.8322 101.922 15.3621C102.21 15.8822 102.612 16.2698 103.128 16.525Z" fill="black"/>
<path fill-rule="evenodd" clip-rule="evenodd" d="M113.156 16.4072C113.762 16.7408 114.442 16.9077 115.196 16.9077C115.901 16.9077 116.502 16.7605 116.998 16.4661C117.264 16.3113 117.497 16.1144 117.698 15.8755V16.7899H119.916V5.86768H117.594V9.69632C117.409 9.49692 117.201 9.32961 116.968 9.1944C116.462 8.9 115.871 8.7528 115.196 8.7528C114.442 8.7528 113.762 8.91964 113.156 9.25328C112.551 9.58691 112.07 10.058 111.712 10.6664C111.365 11.2748 111.191 11.9961 111.191 12.8302C111.191 13.6546 111.365 14.3709 111.712 14.9794C112.07 15.5878 112.551 16.0637 113.156 16.4072ZM116.626 14.7586C116.318 14.9352 115.976 15.0235 115.598 15.0235C115.211 15.0235 114.864 14.9352 114.556 14.7586C114.249 14.5819 114.001 14.3317 113.812 14.0078C113.633 13.6742 113.544 13.2816 113.544 12.8302C113.544 12.369 113.633 11.9765 113.812 11.6526C114.001 11.3288 114.249 11.0786 114.556 10.9019C114.864 10.7253 115.211 10.637 115.598 10.637C115.976 10.637 116.318 10.7253 116.626 10.9019C116.934 11.0786 117.177 11.3288 117.355 11.6526C117.544 11.9765 117.638 12.369 117.638 12.8302C117.638 13.2816 117.544 13.6742 117.355 14.0078C117.177 14.3317 116.934 14.5819 116.626 14.7586Z" fill="black"/>
<path d="M29.084 6.48592V16.7899H36.7222V14.8469H31.4961V6.48592H29.084Z" fill="black"/>
<path d="M37.9062 5.86768V16.7899H40.2289V5.86768H37.9062Z" fill="black"/>
<path d="M87.3001 5.86768V16.7899H89.6229V5.86768H87.3001Z" fill="black"/>
<path d="M0 0.92C0 0.411899 0.416638 0 0.930587 0H22.3341C22.8481 0 23.2647 0.411898 23.2647 0.92V22.08C23.2647 22.5881 22.8481 23 22.3341 23H0.930587C0.416639 23 0 22.5881 0 22.08V0.92Z" fill="black"/>
<path d="M14.4519 15.1283C12.9714 15.7824 11.3674 15.5144 10.7505 15.2986C10.7505 15.4462 10.7438 15.905 10.7169 16.5591C10.69 17.2132 10.4814 17.6266 10.3804 17.7515C10.3916 18.1603 10.4006 19.0529 10.3468 19.3527C10.2929 19.6525 10.1 19.9092 10.0103 20H9.10175C9.18251 19.5912 9.49432 19.33 9.64014 19.2505C9.72089 18.4056 9.56162 17.672 9.47189 17.4108C9.38216 17.7288 9.16232 18.4669 9.00081 18.8758C8.83929 19.2846 8.59702 19.6593 8.49607 19.7956H7.82309C7.78944 19.3868 8.01377 19.2505 8.15958 19.2505C8.22688 19.1256 8.3884 18.7327 8.49607 18.1603C8.60375 17.588 8.45121 16.5137 8.36148 16.0481V14.5832C7.28471 14.004 6.88092 13.4249 6.61173 12.7776C6.39638 12.2597 6.4547 11.4716 6.51078 11.1423C6.44349 11.0174 6.24728 10.6999 6.1743 10.2565C6.07335 9.64329 6.12943 9.2004 6.1743 8.96192C6.107 8.89379 5.9724 8.54629 5.9724 7.7014C5.9724 6.85651 6.21916 6.41817 6.34253 6.30461V5.92986C5.87144 5.89579 5.40036 5.69138 5.13117 5.41884C4.86198 5.14629 5.06387 4.73748 5.23212 4.6012C5.40036 4.46493 5.56861 4.56713 5.80415 4.499C6.03969 4.43086 6.24159 4.36273 6.34253 4.15832C6.42329 3.99479 6.26402 3.31797 6.17429 3C6.57808 3.05451 6.83605 3.40882 6.91457 3.57916V3C7.4193 3.23848 8.32782 3.81764 8.63066 5.07816C8.87293 6.08657 9.04567 8.20108 9.10175 9.13228C10.3916 9.14363 12.0292 8.9473 13.5098 9.26854C14.8557 9.56057 15.4614 10.1543 16.168 10.1543C16.8747 10.1543 17.2784 9.7455 17.7832 10.0862C18.2879 10.4269 18.5571 11.3808 18.4898 12.0962C18.436 12.6685 17.9963 12.8571 17.7832 12.8798C17.514 13.7792 17.7832 14.64 17.9514 14.9579V16.2525C18.0299 16.3661 18.187 16.7158 18.187 17.2064C18.187 17.697 18.0299 18.0241 17.9514 18.1263C18.086 18.8894 17.8953 19.6707 17.7832 19.9659H16.8747C16.9823 19.6934 17.1663 19.6253 17.2448 19.6253C17.4063 18.7804 17.2897 18.0013 17.2111 17.7174C16.6997 17.4176 16.3699 16.8884 16.269 16.6613C16.2802 16.8544 16.2488 17.3904 16.0334 17.99C15.8181 18.5896 15.495 18.9439 15.3605 19.0461V19.7615H14.4519C14.4519 19.3255 14.6987 19.2392 14.8221 19.2505C14.9791 18.9666 15.3605 18.5351 15.3605 17.6834C15.3605 16.9647 14.8557 16.6273 14.4856 15.98C14.3097 15.6724 14.3958 15.2872 14.4519 15.1283Z" fill="url(#paint0_linear_51_15)"/>
<defs>
<linearGradient id="paint0_linear_51_15" x1="6.07677" y1="4.43086" x2="20.6601" y2="16.6427" gradientUnits="userSpaceOnUse">
<stop offset="0.0619804" stop-color="#F6DCD9"/>
<stop offset="0.325677" stop-color="#FFA5EA"/>
<stop offset="0.589257" stop-color="#45DFF8"/>
<stop offset="1" stop-color="#BC8DEB"/>
</linearGradient>
</defs>
</svg>
