<svg width="216" height="40" viewBox="0 0 216 40" fill="none" xmlns="http://www.w3.org/2000/svg">
<g clip-path="url(#clip0_113_1286)">
<path d="M0 1.6C0 0.716346 0.716345 0 1.6 0H38.4C39.2837 0 40 0.716345 40 1.6V38.4C40 39.2837 39.2837 40 38.4 40H1.6C0.716346 40 0 39.2837 0 38.4V1.6Z" fill="black"/>
<path d="M25.1337 26.3099C22.5588 27.4475 19.7694 26.9814 18.6965 26.6062C18.6965 26.8629 18.6848 27.6608 18.638 28.7984C18.5912 29.9359 18.2284 30.6548 18.0528 30.8721C18.0723 31.5831 18.0879 33.1354 17.9943 33.6568C17.9006 34.1782 17.5651 34.6245 17.4091 34.7825H15.829C15.9695 34.0715 16.5118 33.6173 16.7654 33.479C16.9058 32.0097 16.6288 30.7338 16.4728 30.2796C16.3167 30.8326 15.9344 32.1163 15.6535 32.8273C15.3726 33.5383 14.9512 34.19 14.7757 34.427H13.6053C13.5468 33.716 13.9369 33.479 14.1905 33.479C14.3075 33.2618 14.5884 32.5784 14.7757 31.5831C14.9629 30.5877 14.6977 28.7194 14.5416 27.9096V25.3619C12.669 24.3547 11.9667 23.3475 11.4986 22.2217C11.124 21.3211 11.2255 19.9505 11.323 19.3778C11.206 19.1605 10.8647 18.6084 10.7378 17.8373C10.5623 16.7708 10.6598 16.0006 10.7378 15.5858C10.6208 15.4674 10.3867 14.863 10.3867 13.3936C10.3867 11.9243 10.8158 11.1619 11.0304 10.9644V10.3127C10.2111 10.2534 9.39184 9.89795 8.92368 9.42396C8.45552 8.94997 8.80664 8.23898 9.09924 8.00199C9.39184 7.76499 9.68444 7.94274 10.0941 7.82424C10.5037 7.70574 10.8548 7.58724 11.0304 7.23175C11.1708 6.94735 10.8939 5.77028 10.7378 5.21729C11.44 5.31208 11.8887 5.92827 12.0252 6.22452V5.21729C12.903 5.63203 14.4831 6.63926 15.0098 8.83147C15.4311 10.5852 15.7315 14.2626 15.829 15.8821C18.0723 15.9019 20.9203 15.5604 23.4951 16.1191C25.8359 16.627 26.8893 17.6596 28.1182 17.6596C29.3471 17.6596 30.0494 16.9486 30.9272 17.5411C31.805 18.1336 32.2731 19.7925 32.1561 21.0368C32.0625 22.0321 31.2978 22.36 30.9272 22.3995C30.459 23.9637 30.9272 25.4607 31.2198 26.0137V28.2651C31.3563 28.4626 31.6294 29.0709 31.6294 29.9241C31.6294 30.7773 31.3563 31.3461 31.2198 31.5238C31.4538 32.851 31.1222 34.2098 30.9272 34.7233H29.3471C29.5344 34.2493 29.8543 34.1308 29.9908 34.1308C30.2717 32.6614 30.0689 31.3066 29.9323 30.8128C29.0428 30.2914 28.4693 29.3711 28.2938 28.9761C28.3133 29.3119 28.2587 30.244 27.8841 31.2868C27.5096 32.3296 26.9478 32.9458 26.7137 33.1235V34.3678H25.1337C25.1337 33.6094 25.5628 33.4593 25.7774 33.479C26.0505 32.9853 26.7137 32.2348 26.7137 30.7536C26.7137 29.5037 25.8359 28.9169 25.1922 27.7911C24.8864 27.2563 25.0362 26.5864 25.1337 26.3099Z" fill="url(#paint0_linear_113_1286)"/>
</g>
<path fill-rule="evenodd" clip-rule="evenodd" d="M84.8865 27.9082C84.5708 28.4321 84.1407 28.8553 83.5961 29.1777C82.7896 29.6552 81.7496 29.8939 80.4773 29.8939C79.3482 29.8939 78.3804 29.7082 77.5739 29.3369C76.7674 28.9479 76.1491 28.4261 75.719 27.7719C75.2888 27.1176 75.0738 26.3837 75.0738 25.5703C75.0738 24.7215 75.2798 23.9788 75.6921 23.3422C76.1222 22.7056 76.7943 22.2105 77.7083 21.8568C78.6223 21.4854 79.8142 21.2997 81.2838 21.2997H84.6177C84.6177 20.4155 84.3396 19.7259 83.7843 19.2308C83.2467 18.7357 82.4133 18.4881 81.2838 18.4881C80.5131 18.4881 79.7514 18.6118 78.9987 18.8594C78.2639 19.0893 77.6366 19.4076 77.1169 19.8143L75.6114 16.9231C76.4 16.3749 77.3498 15.9505 78.461 15.6499C79.5722 15.3492 80.7013 15.1989 81.8487 15.1989C84.0532 15.1989 85.7644 15.7118 86.9834 16.7374C88.2016 17.763 88.8115 19.3634 88.8115 21.5385V29.6817H84.8865V27.9082ZM84.6177 23.7135H81.7412C80.7551 23.7135 80.074 23.8727 79.6977 24.191C79.3392 24.5093 79.16 24.9072 79.16 25.3846C79.16 25.9151 79.3661 26.3395 79.7783 26.6578C80.2084 26.9585 80.7909 27.1088 81.5257 27.1088C82.2251 27.1088 82.8518 26.9496 83.408 26.6313C83.9633 26.2953 84.3665 25.809 84.6177 25.1724V23.7135Z" fill="black"/>
<path d="M114.167 15.8886C113.289 15.4288 112.276 15.1989 111.13 15.1989C109.749 15.1989 108.522 15.5261 107.447 16.1804C106.844 16.5532 106.335 17.0006 105.918 17.5227C105.58 16.9875 105.148 16.5489 104.624 16.2069C103.638 15.5349 102.482 15.1989 101.156 15.1989C99.973 15.1989 98.9154 15.4553 97.9837 15.9682C97.4587 16.2525 97.0017 16.6157 96.6126 17.0575V15.4111H92.607V29.6817H96.8008V22.5199C96.8008 21.6711 96.9352 20.9726 97.2041 20.4244C97.4729 19.8762 97.8493 19.4695 98.3332 19.2042C98.8171 18.9213 99.3631 18.7798 99.973 18.7798C100.851 18.7798 101.523 19.054 101.989 19.6021C102.473 20.1503 102.715 20.9991 102.715 22.1485V29.6817H106.909V22.5199C106.909 21.6711 107.043 20.9726 107.312 20.4244C107.581 19.8762 107.957 19.4695 108.441 19.2042C108.925 18.9213 109.471 18.7798 110.081 18.7798C110.959 18.7798 111.64 19.054 112.124 19.6021C112.608 20.1503 112.85 20.9991 112.85 22.1485V29.6817H117.044V21.5119C117.044 20.0619 116.783 18.8771 116.264 17.9576C115.762 17.0203 115.063 16.3307 114.167 15.8886Z" fill="black"/>
<path fill-rule="evenodd" clip-rule="evenodd" d="M129.674 27.9082C129.358 28.4321 128.928 28.8553 128.384 29.1777C127.577 29.6552 126.538 29.8939 125.265 29.8939C124.136 29.8939 123.168 29.7082 122.362 29.3369C121.555 28.9479 120.937 28.4261 120.507 27.7719C120.077 27.1176 119.862 26.3837 119.862 25.5703C119.862 24.7215 120.067 23.9788 120.48 23.3422C120.91 22.7056 121.582 22.2105 122.496 21.8568C123.41 21.4854 124.602 21.2997 126.072 21.2997H129.405C129.405 20.4155 129.127 19.7259 128.572 19.2308C128.034 18.7357 127.201 18.4881 126.072 18.4881C125.301 18.4881 124.539 18.6118 123.787 18.8594C123.051 19.0893 122.425 19.4076 121.905 19.8143L120.399 16.9231C121.188 16.3749 122.137 15.9505 123.249 15.6499C124.36 15.3492 125.489 15.1989 126.636 15.1989C128.841 15.1989 130.552 15.7118 131.771 16.7374C132.99 17.763 133.599 19.3634 133.599 21.5385V29.6817H129.674V27.9082ZM129.405 23.7135H126.529C125.543 23.7135 124.862 23.8727 124.485 24.191C124.127 24.5093 123.948 24.9072 123.948 25.3846C123.948 25.9151 124.154 26.3395 124.566 26.6578C124.996 26.9585 125.578 27.1088 126.314 27.1088C127.012 27.1088 127.64 26.9496 128.195 26.6313C128.751 26.2953 129.154 25.809 129.405 25.1724V23.7135Z" fill="black"/>
<path d="M142.637 29.3103C143.891 29.7701 145.244 30 146.696 30C148.345 30 149.824 29.7171 151.132 29.1512C152.458 28.5853 153.569 27.763 154.465 26.6843L151.669 24.1379C151.024 24.8806 150.308 25.4377 149.519 25.809C148.73 26.1627 147.87 26.3395 146.938 26.3395C146.06 26.3395 145.254 26.198 144.518 25.9151C143.783 25.6322 143.147 25.2255 142.61 24.695C142.072 24.1645 141.651 23.5367 141.346 22.8117C141.06 22.0866 140.916 21.2821 140.916 20.3979C140.916 19.5137 141.06 18.7091 141.346 17.9841C141.651 17.259 142.072 16.6313 142.61 16.1008C143.147 15.5703 143.783 15.1635 144.518 14.8806C145.254 14.5977 146.06 14.4562 146.938 14.4562C147.87 14.4562 148.73 14.6419 149.519 15.0133C150.308 15.367 151.024 15.9063 151.669 16.6313L154.465 14.0849C153.569 13.0062 152.458 12.1927 151.132 11.6446C149.824 11.0787 148.354 10.7958 146.723 10.7958C145.254 10.7958 143.9 11.0345 142.664 11.5119C141.427 11.9717 140.342 12.6349 139.411 13.5013C138.497 14.3678 137.78 15.3846 137.26 16.5517C136.758 17.7188 136.507 19.0009 136.507 20.3979C136.507 21.7948 136.758 23.0769 137.26 24.244C137.78 25.4111 138.497 26.428 139.411 27.2944C140.325 28.1609 141.4 28.8329 142.637 29.3103Z" fill="black"/>
<path fill-rule="evenodd" clip-rule="evenodd" d="M167.966 28.939C169.166 29.5756 170.537 29.8939 172.079 29.8939C173.602 29.8939 174.964 29.5756 176.165 28.939C177.366 28.3024 178.306 27.4359 178.988 26.3395C179.668 25.2255 180.009 23.9611 180.009 22.5464C180.009 21.0964 179.668 19.8232 178.988 18.7268C178.306 17.6304 177.366 16.7728 176.165 16.1538C174.964 15.5172 173.602 15.1989 172.079 15.1989C170.537 15.1989 169.166 15.5172 167.966 16.1538C166.783 16.7728 165.842 17.6393 165.143 18.7533C164.462 19.8497 164.121 21.1141 164.121 22.5464C164.121 23.9611 164.462 25.2255 165.143 26.3395C165.842 27.4359 166.783 28.3024 167.966 28.939ZM173.961 26.0212C173.404 26.3395 172.778 26.4987 172.079 26.4987C171.38 26.4987 170.752 26.3395 170.197 26.0212C169.641 25.7029 169.193 25.252 168.853 24.6684C168.53 24.0672 168.369 23.3598 168.369 22.5464C168.369 21.7153 168.53 21.008 168.853 20.4244C169.193 19.8408 169.641 19.3899 170.197 19.0716C170.752 18.7533 171.38 18.5942 172.079 18.5942C172.778 18.5942 173.404 18.7533 173.961 19.0716C174.516 19.3899 174.955 19.8408 175.278 20.4244C175.6 21.008 175.762 21.7153 175.762 22.5464C175.762 23.3598 175.6 24.0672 175.278 24.6684C174.955 25.252 174.516 25.7029 173.961 26.0212Z" fill="black"/>
<path d="M185.689 29.2042C186.639 29.664 187.714 29.8939 188.915 29.8939C190.026 29.8939 191.047 29.6463 191.98 29.1512C192.534 28.8519 193.009 28.4713 193.405 28.0094V29.6817H197.383V15.4111H193.19V22.4668C193.19 23.3333 193.046 24.0584 192.759 24.6419C192.472 25.2078 192.078 25.6322 191.577 25.9151C191.074 26.1804 190.501 26.313 189.856 26.313C188.924 26.313 188.198 26.0389 187.679 25.4907C187.176 24.9248 186.926 24.0495 186.926 22.8647V15.4111H182.732V23.4748C182.732 24.9426 182.992 26.1538 183.512 27.1088C184.031 28.046 184.757 28.7444 185.689 29.2042Z" fill="black"/>
<path fill-rule="evenodd" clip-rule="evenodd" d="M203.795 28.992C204.889 29.5933 206.116 29.8939 207.478 29.8939C208.751 29.8939 209.835 29.6286 210.731 29.0981C211.212 28.8192 211.633 28.4644 211.994 28.0339V29.6817H216V10H211.806V16.8992C211.473 16.5398 211.097 16.2384 210.677 15.9947C209.763 15.4642 208.697 15.1989 207.478 15.1989C206.116 15.1989 204.889 15.4996 203.795 16.1008C202.702 16.702 201.833 17.5508 201.187 18.6472C200.561 19.7436 200.246 21.0434 200.246 22.5464C200.246 24.0318 200.561 25.3227 201.187 26.4191C201.833 27.5155 202.702 28.3731 203.795 28.992ZM210.059 26.0212C209.504 26.3395 208.885 26.4987 208.204 26.4987C207.505 26.4987 206.878 26.3395 206.322 26.0212C205.767 25.7029 205.319 25.252 204.978 24.6684C204.655 24.0672 204.494 23.3598 204.494 22.5464C204.494 21.7153 204.655 21.008 204.978 20.4244C205.319 19.8408 205.767 19.3899 206.322 19.0716C206.878 18.7533 207.505 18.5942 208.204 18.5942C208.885 18.5942 209.504 18.7533 210.059 19.0716C210.615 19.3899 211.053 19.8408 211.376 20.4244C211.717 21.008 211.887 21.7153 211.887 22.5464C211.887 23.3598 211.717 24.0672 211.376 24.6684C211.053 25.252 210.615 25.7029 210.059 26.0212Z" fill="black"/>
<path d="M52 11.1141V29.6817H65.7911V26.1804H56.3551V11.1141H52Z" fill="black"/>
<path d="M67.9287 10V29.6817H72.1225V10H67.9287Z" fill="black"/>
<path d="M157.111 10V29.6817H161.305V10H157.111Z" fill="black"/>
<defs>
<linearGradient id="paint0_linear_113_1286" x1="10.5682" y1="7.70574" x2="35.9306" y2="28.9436" gradientUnits="userSpaceOnUse">
<stop offset="0.0619804" stop-color="#F6DCD9"/>
<stop offset="0.325677" stop-color="#FFA5EA"/>
<stop offset="0.589257" stop-color="#45DFF8"/>
<stop offset="1" stop-color="#BC8DEB"/>
</linearGradient>
<clipPath id="clip0_113_1286">
<rect width="40" height="40" rx="8" fill="white"/>
</clipPath>
</defs>
</svg>
